# xmcd
#
# Track frame offsets:
#	182
#	21417
#	34957
#	54980
#	71315
#	85210
#	100260
#	113245
#	129972
#	150722
#	164372
#	183312
#	202062
#	219177
#	251707
#	269950
#	288085
#	309527
#
# Disc length: 4358
#
# Revision: 2
# Processed by: cddbd v1.5.1PL0 Copyright (c) Steve Scherf et al.
# Submitted via: audiograbber 1.80
# Normalized: r0:TSWAP
#
DISCID=04110412
DTITLE=25  Years Of Number One Hits - Soul
DYEAR=1900
DGENRE=Blues
TTITLE0=And The Family Stone - Thank You Sly
TTITLE1=Aretha Franklin - Dont Play That Song
TTITLE2=Staple Singers - I Ll Take You There
TTITLE3=James Brown - Get On The Good Food
TTITLE4=Al Green - L.o.v.e.
TTITLE5=Isley Brothers - Fight The Power
TTITLE6=Natalie Cole - This Will Be
TTITLE7=Emotions - Best Of My Love
TTITLE8=Barry White - Its Ecstacy When You Lay Down Next To Me
TTITLE9=Johnny Mathis And Deniece Williams - To Much To Little To Late
TTITLE10=Larry Graham - One In A Million You
TTITLE11=Yarbrough And Peoples - Dont Stop The Musik
TTITLE12=Cameo - She S Strange
TTITLE13=Freddy Jackson - Rock Me Tonight
TTITLE14=Melisa Morgan - Do Me Baby
TTITLE15=Al Be Sure - Nite And Day
TTITLE16=Hi Five - I Can T Wait Another Minute
TTITLE17=Aaliyaah - Bach And Foth
EXTD=
EXTT0=
EXTT1=
EXTT2=
EXTT3=
EXTT4=
EXTT5=
EXTT6=
EXTT7=
EXTT8=
EXTT9=
EXTT10=
EXTT11=
EXTT12=
EXTT13=
EXTT14=
EXTT15=
EXTT16=
EXTT17=
PLAYORDER=
